<svg width="32" height="32" viewBox="0 0 32 32" fill="none" xmlns="http://www.w3.org/2000/svg">
  <rect width="32" height="32" rx="8" fill="url(#gradient)"/>
  <path d="M16 22H23" stroke="white" strokeWidth="2" strokeLinecap="round" strokeLinejoin="round"/>
  <path d="M19.5 9.5C19.8978 9.10217 20.4374 8.87868 21 8.87868C21.2786 8.87868 21.5544 8.93355 21.8118 9.04015C22.0692 9.14676 22.303 9.30301 22.5 9.5C22.697 9.69698 22.8532 9.93083 22.9598 10.1882C23.0665 10.4456 23.1213 10.7214 23.1213 11C23.1213 11.2786 23.0665 11.5544 22.9598 11.8118C22.8532 12.0692 22.697 12.303 22.5 12.5L12 23L9 24L10 21L19.5 9.5Z" stroke="white" strokeWidth="2" strokeLinecap="round" strokeLinejoin="round"/>
  <defs>
    <linearGradient id="gradient" x1="0" y1="0" x2="32" y2="32" gradientUnits="userSpaceOnUse">
      <stop stopColor="#6366f1"/>
      <stop offset="1" stopColor="#4f46e5"/>
    </linearGradient>
  </defs>
</svg>
